<svg width="332" height="123" viewBox="0 0 332 123" fill="none" xmlns="http://www.w3.org/2000/svg">
<path d="M31.4555 90.152C25.6528 90.152 20.4475 89.128 15.8395 87.08C11.2315 84.9467 7.56217 82.088 4.8315 78.504C2.18617 74.92 0.735503 70.952 0.479503 66.6H18.5275C18.8688 69.3307 20.1915 71.592 22.4955 73.384C24.8848 75.176 27.8288 76.072 31.3275 76.072C34.7408 76.072 37.3862 75.3893 39.2635 74.024C41.2262 72.6587 42.2075 70.9093 42.2075 68.776C42.2075 66.472 41.0128 64.7653 38.6235 63.656C36.3195 62.4613 32.6075 61.1813 27.4875 59.816C22.1968 58.536 17.8448 57.2133 14.4315 55.848C11.1035 54.4827 8.20217 52.392 5.7275 49.576C3.33817 46.76 2.1435 42.9627 2.1435 38.184C2.1435 34.2587 3.25284 30.6747 5.4715 27.432C7.7755 24.1893 11.0182 21.6293 15.1995 19.752C19.4662 17.8747 24.4582 16.936 30.1755 16.936C38.6235 16.936 45.3648 19.0693 50.3995 23.336C55.4342 27.5173 58.2075 33.192 58.7195 40.36H41.5675C41.3115 37.544 40.1168 35.3253 37.9835 33.704C35.9355 31.9973 33.1622 31.144 29.6635 31.144C26.4208 31.144 23.9035 31.7413 22.1115 32.936C20.4048 34.1307 19.5515 35.7947 19.5515 37.928C19.5515 40.3173 20.7462 42.152 23.1355 43.432C25.5248 44.6267 29.2368 45.864 34.2715 47.144C39.3915 48.424 43.6155 49.7467 46.9435 51.112C50.2715 52.4773 53.1302 54.6107 55.5195 57.512C57.9942 60.328 59.2742 64.0827 59.3595 68.776C59.3595 72.872 58.2075 76.5413 55.9035 79.784C53.6848 83.0267 50.4422 85.5867 46.1755 87.464C41.9942 89.256 37.0875 90.152 31.4555 90.152ZM88.5335 32.808V67.112C88.5335 69.5013 89.0882 71.2507 90.1975 72.36C91.3922 73.384 93.3548 73.896 96.0855 73.896H104.406V89H93.1415C78.0375 89 70.4855 81.6613 70.4855 66.984V32.808H62.0375V18.088H70.4855V0.551994H88.5335V18.088H104.406V32.808H88.5335ZM176.815 52.008C176.815 54.568 176.644 56.872 176.303 58.92H124.463C124.889 64.04 126.681 68.0507 129.839 70.952C132.996 73.8533 136.879 75.304 141.487 75.304C148.143 75.304 152.879 72.4453 155.695 66.728H175.023C172.975 73.5547 169.049 79.1867 163.247 83.624C157.444 87.976 150.319 90.152 141.871 90.152C135.044 90.152 128.9 88.6587 123.439 85.672C118.063 82.6 113.839 78.2907 110.767 72.744C107.78 67.1973 106.286 60.7973 106.286 53.544C106.286 46.2053 107.78 39.7627 110.767 34.216C113.753 28.6693 117.935 24.4027 123.311 21.416C128.687 18.4293 134.873 16.936 141.871 16.936C148.612 16.936 154.628 18.3867 159.919 21.288C165.295 24.1893 169.433 28.328 172.335 33.704C175.321 38.9947 176.815 45.096 176.815 52.008ZM158.255 46.888C158.169 42.28 156.505 38.6107 153.263 35.88C150.02 33.064 146.052 31.656 141.359 31.656C136.921 31.656 133.167 33.0213 130.095 35.752C127.108 38.3973 125.273 42.1093 124.591 46.888H158.255ZM201.415 28.328C203.719 25.0853 206.876 22.3973 210.887 20.264C214.983 18.0453 219.633 16.936 224.839 16.936C230.897 16.936 236.359 18.4293 241.223 21.416C246.172 24.4027 250.055 28.6693 252.871 34.216C255.772 39.6773 257.223 46.0347 257.223 53.288C257.223 60.5413 255.772 66.984 252.871 72.616C250.055 78.1627 246.172 82.472 241.223 85.544C236.359 88.616 230.897 90.152 224.839 90.152C219.633 90.152 215.025 89.0853 211.015 86.952C207.089 84.8187 203.889 82.1307 201.415 78.888V122.792H183.495V18.088H201.415V28.328ZM238.919 53.288C238.919 49.0213 238.023 45.352 236.231 42.28C234.524 39.1227 232.22 36.7333 229.319 35.112C226.503 33.4907 223.431 32.68 220.103 32.68C216.86 32.68 213.788 33.5333 210.887 35.24C208.071 36.8613 205.767 39.2507 203.975 42.408C202.268 45.5653 201.415 49.2773 201.415 53.544C201.415 57.8107 202.268 61.5227 203.975 64.68C205.767 67.8373 208.071 70.2693 210.887 71.976C213.788 73.5973 216.86 74.408 220.103 74.408C223.431 74.408 226.503 73.5547 229.319 71.848C232.22 70.1413 234.524 67.7093 236.231 64.552C238.023 61.3947 238.919 57.64 238.919 53.288ZM331.685 18.088L287.781 122.536H268.709L284.069 87.208L255.653 18.088H275.749L294.053 67.624L312.613 18.088H331.685Z" fill="#4CAF50"/>
</svg>
